<svg xmlns="http://www.w3.org/2000/svg" viewBox="0 0 136 182">
  <g fill="none">
    <path fill="#333B40" d="M8.63183583 124.174876L8.63183583 116.247142C8.63183583 115.532298 8.58496083 114.717845 8.49121083 113.803783L8.49121083 113.803783 8.42089833 113.083079 8.63183583 113.083079C10.0263671 114.946361 12.0185546 115.878001 14.6083983 115.878001 17.1279296 115.878001 19.0849608 114.993236 20.4794921 113.223704 21.8740233 111.454173 22.571289 108.993236 22.571289 105.840892 22.571289 102.676829 21.876953 100.224681 20.4882811 98.4844466 19.0996093 96.7442122 17.1513671 95.874095 14.6435546 95.874095 13.3544921 95.874095 12.2177733 96.10847 11.2333983 96.57722 10.2490233 97.04597 9.38183583 97.8076888 8.63183583 98.8623763L8.63183583 98.8623763 8.49121083 98.8623763 8.06933583 96.2256575 5.46777333 96.2256575 5.46777333 124.174876 8.63183583 124.174876zM14.1513671 113.258861C12.2060546 113.258861 10.7998046 112.675853 9.93261708 111.509837 9.06542958 110.343822 8.63183583 108.454173 8.63183583 105.840892L8.63183583 105.840892 8.63183583 105.225658C8.65527333 102.917064 9.09179677 101.223704 9.94140615 100.145579 10.7910155 99.0674544 12.1708983 98.5283919 14.0810546 98.5283919 15.7451171 98.5283919 17.0312499 99.1524153 17.939453 100.400462 18.8476561 101.648509 19.3017577 103.450267 19.3017577 105.805736 19.3017577 108.149486 18.8476561 109.977611 17.939453 111.290111 17.0312499 112.602611 15.7685546 113.258861 14.1513671 113.258861zM29.6552734 115.526439L29.6552734 105.559642C29.6552734 103.051829 30.1093749 101.253001 31.0175781 100.163158 31.9257812 99.0733138 33.3583984 98.5283919 35.3154296 98.5283919 36.8037109 98.5283919 37.8964843 98.912181 38.5937499 99.6797591 39.2910156 100.447337 39.6396484 101.616283 39.6396484 103.186595L39.6396484 103.186595 39.6396484 115.526439 42.7685546 115.526439 42.7685546 102.958079C42.7685546 100.497142 42.1767577 98.7071028 40.993164 97.5879622 39.8095702 96.4688216 38.0458984 95.9092513 35.7021484 95.9092513 34.3779296 95.9092513 33.1884765 96.1729232 32.133789 96.7002669 31.0791015 97.2276107 30.2646484 97.9600325 29.6904296 98.8975325L29.6904296 98.8975325 29.4794921 98.8975325C29.5966796 98.1475325 29.6552734 97.2451888 29.6552734 96.1905013L29.6552734 96.1905013 29.6552734 88.1748763 26.4912109 88.1748763 26.4912109 115.526439 29.6552734 115.526439zM55.3896484 115.878001C58.2021484 115.878001 60.4052734 114.993236 61.9990234 113.223704 63.5927734 111.454173 64.3896484 108.993236 64.3896484 105.840892 64.3896484 102.770579 63.5898437 100.341868 61.9902343 98.5547591 60.390625 96.7676497 58.2314453 95.874095 55.5126953 95.874095 52.6767578 95.874095 50.4736328 96.7500716 48.9033203 98.5020247 47.3330078 100.253978 46.5478515 102.700267 46.5478515 105.840892 46.5478515 107.856517 46.9111328 109.626048 47.6376953 111.149486 48.3642578 112.672923 49.4013671 113.841868 50.7490234 114.656322 52.0966796 115.470775 53.6435546 115.878001 55.3896484 115.878001zM55.477539 113.258861C53.6142578 113.258861 52.2050781 112.628978 51.25 111.369212 50.2949218 110.109447 49.8173828 108.266673 49.8173828 105.840892 49.8173828 100.965892 51.6865234 98.5283919 55.4248046 98.5283919 57.2880859 98.5283919 58.703125 99.1406966 59.6699218 100.365306 60.6367187 101.589915 61.1201171 103.415111 61.1201171 105.840892 61.1201171 108.266673 60.6396484 110.109447 59.6787109 111.369212 58.7177734 112.628978 57.3173828 113.258861 55.477539 113.258861zM76.4833984 115.878001C77.7607422 115.878001 78.868164 115.784251 79.805664 115.596751 80.743164 115.409251 81.7451172 115.086986 82.8115234 114.629954L82.8115234 114.629954 82.8115234 111.852611C81.5693359 112.379954 80.4853515 112.734447 79.5595703 112.916087 78.633789 113.097728 77.6552734 113.188548 76.6240234 113.188548 74.6904297 113.188548 73.196289 112.620189 72.1416015 111.48347 71.086914 110.346751 70.5302734 108.682689 70.4716797 106.491283L70.4716797 106.491283 83.6904297 106.491283 83.6904297 104.575267C83.6904297 101.903392 82.9697265 99.7852278 81.5283203 98.2207747 80.086914 96.6563216 78.1533203 95.874095 75.727539 95.874095 73.1142578 95.874095 71.040039 96.7910872 69.5048828 98.6250716 67.9697265 100.459056 67.2021484 102.922923 67.2021484 106.016673 67.2021484 109.086986 68.0253906 111.498118 69.671875 113.250072 71.3183594 115.002025 73.5888672 115.878001 76.4833984 115.878001zM80.368164 103.977611L70.5419922 103.977611C70.7060547 102.243236 71.227539 100.88972 72.1064453 99.9170638 72.9853515 98.9444075 74.180664 98.4580794 75.6923828 98.4580794 77.1689453 98.4580794 78.3115234 98.9268294 79.1201172 99.8643294 79.9287109 100.801829 80.3447265 102.172923 80.368164 103.977611L80.368164 103.977611zM90.616211 115.526439L90.616211 105.524486C90.616211 103.051829 91.0644531 101.26765 91.9609375 100.171947 92.8574219 99.0762435 94.2958985 98.5283919 96.2763672 98.5283919 97.7646485 98.5283919 98.8574219 98.912181 99.5546875 99.6797591 100.251953 100.447337 100.600586 101.616283 100.600586 103.186595L100.600586 103.186595 100.600586 115.526439 103.729492 115.526439 103.729492 102.958079C103.729492 100.532298 103.155273 98.7451888 102.006836 97.5967513 100.858398 96.4483138 99.100586 95.874095 96.7333985 95.874095 95.4326172 95.874095 94.2431641 96.1348372 93.1650391 96.6563216 92.0869141 97.177806 91.2490235 97.9131575 90.6513672 98.8623763L90.6513672 98.8623763 90.475586 98.8623763 90.0009766 96.2256575 87.4521485 96.2256575 87.4521485 115.526439 90.616211 115.526439zM110.198242 93.0264388C110.69043 93.0264388 111.121094 92.8623763 111.490234 92.5342513 111.859375 92.2061263 112.043945 91.6963607 112.043945 91.0049544 112.043945 90.3018294 111.859375 89.7920638 111.490234 89.4756575 111.121094 89.1592513 110.69043 89.0010482 110.198242 89.0010482 109.670898 89.0010482 109.228516 89.1592513 108.871094 89.4756575 108.513672 89.7920638 108.334961 90.3018294 108.334961 91.0049544 108.334961 91.6963607 108.513672 92.2061263 108.871094 92.5342513 109.228516 92.8623763 109.670898 93.0264388 110.198242 93.0264388zM111.745117 115.526439L111.745117 96.2256575 108.581055 96.2256575 108.581055 115.526439 111.745117 115.526439zM117.897461 115.526439L123.223633 107.82722 128.479492 115.526439 132.083008 115.526439 125.051758 105.665111 131.713867 96.2256575 128.145508 96.2256575 123.223633 103.503001 118.249024 96.2256575 114.645508 96.2256575 121.307617 105.665111 114.329102 115.526439 117.897461 115.526439zM13.8090823 178.165621L13.8090823 165.336519C13.8090823 164.921154 13.6580407 163.391857 13.3559573 160.748628L13.3559573 160.748628 13.8090823 160.748628C15.9236657 163.448498 18.8406579 164.798433 22.5600589 164.798433 25.0333662 164.798433 27.1857099 164.147066 29.0170901 162.844331 30.8484704 161.541597 32.2597659 159.644136 33.2509769 157.151949 34.2421878 154.659761 34.7377933 151.723889 34.7377933 148.344331 34.7377933 143.208915 33.6805016 139.196871 31.5659183 136.308199 29.4513349 133.419527 26.5249026 131.975191 22.7866214 131.975191 18.8217776 131.975191 15.8292646 133.542248 13.8090823 136.676363L13.8090823 136.676363 13.412598 136.676363 12.1948245 132.569917 5.17138702 132.569917 5.17138702 178.165621 13.8090823 178.165621zM20.124512 157.803316C17.9344079 157.803316 16.3343102 157.066988 15.324219 155.594331 14.3141279 154.121675 13.8090823 151.686128 13.8090823 148.287691L13.8090823 148.287691 13.8090823 147.353121C13.8468427 144.332287 14.3566084 142.165783 15.3383792 140.853609 16.32015 139.541434 17.8777672 138.885347 20.0112308 138.885347 22.0502933 138.885347 23.5465498 139.664156 24.5000003 141.221773 25.4534508 142.77939 25.9301761 145.115816 25.9301761 148.23105 25.9301761 154.612561 23.9949547 157.803316 20.124512 157.803316zM54.39209 164.798433C56.8653973 164.798433 58.9611004 164.614351 60.6791994 164.246187 62.3972983 163.878023 64.0115561 163.316337 65.5219728 162.561128L65.5219728 162.561128 65.5219728 155.877535C63.6717124 156.746024 61.8969728 157.378511 60.1977541 157.774996 58.4985353 158.17148 56.6954754 158.369722 54.7885744 158.369722 52.3341473 158.369722 50.4272462 157.680594 49.0678712 156.302339 47.7084962 154.924084 46.9816082 153.007743 46.8872072 150.553316L46.8872072 150.553316 67.3061525 150.553316 67.3061525 146.36191C67.3061525 141.86842 66.0600587 138.347261 63.5678712 135.798433 61.0756837 133.249605 57.5922853 131.975191 53.1176759 131.975191 48.4353843 131.975191 44.7679038 133.424247 42.1152345 136.322359 39.4625653 139.220471 38.1362306 143.322196 38.1362306 148.627535 38.1362306 153.781831 39.5711265 157.765555 42.4409181 160.578706 45.3107098 163.391857 49.2944337 164.798433 54.39209 164.798433zM59.2065431 144.804292L47.0854494 144.804292C47.236491 142.670829 47.8312176 141.023531 48.8696291 139.862398 49.9080405 138.701265 51.3429363 138.120699 53.1743166 138.120699 55.0056968 138.120699 56.4594728 138.701265 57.5356447 139.862398 58.6118166 141.023531 59.1687827 142.670829 59.2065431 144.804292L59.2065431 144.804292zM80.2202148 164.798433C82.6935221 164.798433 84.6995443 164.444429 86.2382813 163.736421 87.7770182 163.028413 89.2732747 161.758719 90.7270508 159.927339L90.7270508 159.927339 90.9536133 159.927339 92.6245117 164.232027 98.6567383 164.232027 98.6567383 143.133394C98.6567383 139.357352 97.5239258 136.544201 95.2583008 134.693941 92.9926758 132.84368 89.7358398 131.91855 85.487793 131.91855 81.050944 131.91855 77.0105794 132.872001 73.3666992 134.778902L73.3666992 134.778902 76.2270508 140.612886C79.6443685 139.083589 82.6180013 138.318941 85.1479492 138.318941 88.4331055 138.318941 90.0756836 139.923759 90.0756836 143.133394L90.0756836 143.133394 90.0756836 144.521089 84.581543 144.691011C79.8426107 144.860933 76.2978516 145.743583 73.9472656 147.33896 71.5966797 148.934338 70.4213867 151.412365 70.4213867 154.773042 70.4213867 157.982678 71.2945964 160.455985 73.0410156 162.192964 74.7874349 163.929943 77.1805013 164.798433 80.2202148 164.798433zM83.4770508 158.483003C80.6827799 158.483003 79.2856445 157.26523 79.2856445 154.829683 79.2856445 153.130464 79.8992513 151.86549 81.1264648 151.034761 82.3536784 150.204032 84.222819 149.750907 86.7338867 149.675386L86.7338867 149.675386 90.0756836 149.562105 90.0756836 152.167574C90.0756836 154.074475 89.476237 155.603772 88.2773438 156.755464 87.0784505 157.907157 85.4783529 158.483003 83.4770508 158.483003zM114.374512 164.232027L114.374512 154.376558 118.084473 151.402925 127.203613 164.232027 137.172363 164.232027 123.833496 146.305269 136.407715 132.569917 126.665527 132.569917 117.801269 142.198824 114.034668 147.013277 113.921387 147.013277 114.374512 139.819917 114.374512 120.165621 105.736816 120.165621 105.736816 164.232027 114.374512 164.232027z"/>
    <path fill="#0AF" d="M58.0480292,10.5340037 C61.6240051,11.0890639 64.4440836,13.2216635 66.1448526,16.6834862 C66.4355823,17.2385464 68.4416176,22.6869002 70.6366271,28.7633485 C72.8316367,34.8544036 74.6632341,39.8353383 74.7213801,39.8353383 C74.7649895,39.8353383 75.1138652,39.2656713 75.4918139,38.5499358 C77.2798018,35.2195747 78.9078884,33.3937189 81.0011425,32.3858465 C85.2167238,30.3554948 90.2318119,32.3128122 92.6303323,36.8993621 C92.9065256,37.4252086 96.438892,46.72977 100.494572,57.5826571 C107.297648,75.7827882 107.879107,77.3895414 107.937253,78.3974138 C107.995399,79.2884314 107.95179,79.6536026 107.690133,80.3693381 C107.297648,81.4064242 106.367313,82.3996898 105.277076,82.9401431 C104.288595,83.4221691 102.558753,83.4367759 101.512126,82.95475 C100.66901,82.5603651 99.6369192,81.6109201 99.2589705,80.8659709 C99.0990691,80.573834 95.7992865,71.7951191 91.903508,61.3658305 C88.0222659,50.9365419 84.7515562,42.3038954 84.6498008,42.1870406 C84.5480454,42.0847927 84.3881441,42.0263653 84.3154616,42.0847927 C84.1410238,42.1870406 82.2948899,45.6342565 79.6928587,50.7174392 C78.6753046,52.7185772 77.6286775,54.5882536 77.3670207,54.8803905 C77.105364,55.1725274 76.538441,55.596126 76.1168828,55.8444424 C75.4191314,56.2242204 75.2156206,56.2680409 73.9654827,56.2680409 C72.8171002,56.2680409 72.482761,56.2096135 71.973984,55.9320835 C71.1163312,55.4792712 70.4185798,54.8219631 69.9970217,54.1062276 C69.8080474,53.7702701 66.9734324,46.1016756 63.7027227,37.0600374 C57.3648143,19.5172145 57.4956427,19.8239582 56.5362345,19.8239582 C56.012921,19.8239582 55.6349723,20.1599157 55.2424872,20.9486854 C55.0825858,21.2554292 50.0674977,34.5768735 44.0930015,50.5713707 C38.1330417,66.5512611 33.0452712,80.091808 32.7981509,80.6322613 C31.9986441,82.3704761 30.4723129,83.3637417 28.5534966,83.3637417 C27.1579938,83.3637417 26.358487,83.0277842 25.3409329,81.9906981 C24.3233788,80.953612 23.9599666,80.091808 23.9599666,78.7187644 C23.9599666,77.8569605 24.686791,75.8704293 35.2257442,47.6500013 C41.4182878,31.0566234 46.6659597,17.1362984 46.8694705,16.7273067 C47.5381489,15.3980837 48.3085828,14.3902112 49.4860382,13.2508772 C51.1286613,11.6879446 53.0038681,10.7531064 55.0971223,10.4901832 C56.4490156,10.314901 56.6234534,10.314901 58.0480292,10.5340037 L58.0480292,10.5340037 Z"/>
    <path fill="#000" d="M58.0758966,0.194433938 C62.1793161,0.82829549 65.4153461,3.26365829 67.3669725,7.2169527 C67.7005838,7.85081426 70.0025021,14.0726658 72.5212677,21.0117817 C75.0400334,27.9675782 77.1417848,33.6556516 77.2085071,33.6556516 C77.2585488,33.6556516 77.6588824,33.0051095 78.0925771,32.1877617 C80.1442869,28.3845924 82.0125104,26.2995215 84.4145121,25.1485624 C89.2518766,22.8299635 95.0066722,25.0651595 97.7589658,30.3028576 C98.0758966,30.903358 102.129274,41.5288793 106.783153,53.9225407 C114.589658,74.7065273 115.256881,76.5413897 115.323603,77.6923489 C115.390325,78.7098635 115.340284,79.1268776 115.040033,79.9442254 C114.589658,81.1285457 113.522102,82.2628243 112.271059,82.8800052 C111.136781,83.430464 109.151793,83.4471445 107.950792,82.8966858 C106.983319,82.4463105 105.798999,81.3620736 105.365304,80.5113647 C105.181818,80.1777534 101.395329,70.1527325 96.9249374,58.2428076 C92.471226,46.3328826 88.7180984,36.4746675 88.6013344,36.3412229 C88.4845705,36.224459 88.3010842,36.1577367 88.2176814,36.224459 C88.0175146,36.3412229 85.8990826,40.2778368 82.9132611,46.0826741 C81.7456214,48.3679118 80.5446205,50.5030244 80.2443703,50.8366358 C79.9441201,51.1702471 79.293578,51.6539836 78.8098415,51.9375532 C78.0091743,52.3712479 77.7756464,52.4212897 76.3411176,52.4212897 C75.0233528,52.4212897 74.6396997,52.3545674 74.0558799,52.0376366 C73.0717264,51.520539 72.2710592,50.7699135 71.7873228,49.9525657 C71.5704754,49.5689127 68.3177648,40.8116149 64.5646372,30.4863439 C57.2919099,10.4529827 57.442035,10.8032746 56.3411176,10.8032746 C55.7406172,10.8032746 55.3069224,11.1869277 54.8565471,12.0876783 C54.6730609,12.4379702 48.9182652,27.6506474 42.0625521,45.9158685 C35.2235196,64.1644089 29.3853211,79.6272947 29.1017515,80.2444756 C28.1843203,82.2294631 26.4328607,83.3637417 24.2310259,83.3637417 C22.6296914,83.3637417 21.7122602,82.9800887 20.5446205,81.7957684 C19.3769808,80.6114481 18.9599666,79.6272947 18.9599666,78.0593213 C18.9599666,77.0751679 19.793995,74.8066108 31.8874062,42.579755 C38.9933278,23.6306308 45.0150125,7.73405029 45.2485405,7.26699441 C46.0158465,5.7490628 46.8999166,4.59810366 48.2510425,3.29701943 C50.1359466,1.51219874 52.2877398,0.444642445 54.6897415,0.144392237 C56.2410342,-0.0557745688 56.441201,-0.0557745688 58.0758966,0.194433938 L58.0758966,0.194433938 Z"/>
  </g>
</svg>
