<svg xmlns="http://www.w3.org/2000/svg" width="40" height="44" viewBox="0 0 40 44">
  <path fill="#3D474D" fill-rule="evenodd" d="M36,2 C40.418278,2 44,5.581722 44,10 L44,38 C44,42.418278 40.418278,46 36,46 L12,46 C7.581722,46 4,42.418278 4,38 L4,10 C4,5.581722 7.581722,2 12,2 L36,2 Z M36,6 L12,6 L12,6 L12,42 L36,42 C38.209139,42 40,40.209139 40,38 L40,38 L40,10 C40,7.790861 38.209139,6 36,6 L36,6 Z M9.99987956,6.53519846 C8.80434324,7.22683444 8,8.51948501 8,10 L8,10 L8,38 C8,39.480515 8.80434324,40.7731656 9.99987956,41.4648015 Z M28,20 C29.1045695,20 30,20.8954305 30,22 C30,23.1045695 29.1045695,24 28,24 L18,24 C16.8954305,24 16,23.1045695 16,22 C16,20.8954305 16.8954305,20 18,20 L28,20 Z M34,12 C35.1045695,12 36,12.8954305 36,14 C36,15.1045695 35.1045695,16 34,16 L18,16 C16.8954305,16 16,15.1045695 16,14 C16,12.8954305 16.8954305,12 18,12 L34,12 Z" transform="translate(-4 -2)"/>
</svg>
