<svg xmlns="http://www.w3.org/2000/svg" width="100%" height="100%" viewBox="0 0 24 24">
  <path fill="currentColor" fill-rule="evenodd" d="M18,3 C20.7614237,3 23,5.23857625 23,8 L23,16 C23,18.7614237 20.7614237,21 18,21 L13,21 L9.62469505,23.700244 C9.19343311,24.0452535 8.56414074,23.9753321 8.21913119,23.5440702 C8.07728075,23.3667572 8,23.1464466 8,22.9193752 L8,21 L6,21 C3.23857625,21 1,18.7614237 1,16 L1,8 C1,5.23857625 3.23857625,3 6,3 L18,3 Z M18,5 L6,5 C4.34314575,5 3,6.34314575 3,8 L3,8 L3,16 C3,17.6568542 4.34314575,19 6,19 L6,19 L9.5,19 C9.77614237,19 10,19.2238576 10,19.5 L10,19.5 L10,21 L11.8535534,19.1464466 C11.9473216,19.0526784 12.0744985,19 12.2071068,19 L12.2071068,19 L18,19 C19.6568542,19 21,17.6568542 21,16 L21,16 L21,8 C21,6.34314575 19.6568542,5 18,5 L18,5 Z M11,13 C11.5522847,13 12,13.4477153 12,14 C12,14.5522847 11.5522847,15 11,15 L7,15 C6.44771525,15 6,14.5522847 6,14 C6,13.4477153 6.44771525,13 7,13 L11,13 Z M15,9 C15.5522847,9 16,9.44771525 16,10 C16,10.5522847 15.5522847,11 15,11 L7,11 C6.44771525,11 6,10.5522847 6,10 C6,9.44771525 6.44771525,9 7,9 L15,9 Z"/>
</svg>
