<svg xmlns="http://www.w3.org/2000/svg" width="100%" height="100%" viewBox="0 0 24 24">
  <path fill="currentColor" fill-rule="evenodd" d="M8,5 C8,4.44771525 8.44771525,4 9,4 L11.5,4 L11.5,0.5 C11.5,0.223857625 11.7238576,5.07265313e-17 12,0 C12.2761424,-5.07265313e-17 12.5,0.223857625 12.5,0.5 L12.5,4 L15,4 C15.5522847,4 16,4.44771525 16,5 L16,22 L22.5,22 C22.7761424,22 23,22.2238576 23,22.5 C23,22.7761424 22.7761424,23 22.5,23 L1.5,23 C1.22385763,23 1,22.7761424 1,22.5 C1,22.2238576 1.22385763,22 1.5,22 L8,22 L8,5 Z M6,7 C6.55228475,7 7,7.44771525 7,8 L7,22 L3,22 L3,8 C3,7.44771525 3.44771525,7 4,7 L6,7 Z M17,9 L20.4472136,10.7236068 C20.7859976,10.8929988 21,11.2392619 21,11.618034 L21,22 L17,22 L17,9 Z M5.5,18 L4.5,18 C4.22385763,18 4,18.2238576 4,18.5 L4,18.5 L4,19.5 C4,19.7761424 4.22385763,20 4.5,20 L4.5,20 L5.5,20 C5.77614237,20 6,19.7761424 6,19.5 L6,19.5 L6,18.5 C6,18.2238576 5.77614237,18 5.5,18 L5.5,18 Z M19.5,18 L18.5,18 C18.2238576,18 18,18.2238576 18,18.5 L18,18.5 L18,19.5 C18,19.7761424 18.2238576,20 18.5,20 L18.5,20 L19.5,20 C19.7761424,20 20,19.7761424 20,19.5 L20,19.5 L20,18.5 C20,18.2238576 19.7761424,18 19.5,18 L19.5,18 Z M5.5,15 L4.5,15 C4.22385763,15 4,15.2238576 4,15.5 L4,15.5 L4,16.5 C4,16.7761424 4.22385763,17 4.5,17 L4.5,17 L5.5,17 C5.77614237,17 6,16.7761424 6,16.5 L6,16.5 L6,15.5 C6,15.2238576 5.77614237,15 5.5,15 L5.5,15 Z M19.5,15 L18.5,15 C18.2238576,15 18,15.2238576 18,15.5 L18,15.5 L18,16.5 C18,16.7761424 18.2238576,17 18.5,17 L18.5,17 L19.5,17 C19.7761424,17 20,16.7761424 20,16.5 L20,16.5 L20,15.5 C20,15.2238576 19.7761424,15 19.5,15 L19.5,15 Z M14.5,14 L9.5,14 C9.22385763,14 9,14.2238576 9,14.5 L9,14.5 L9,16.5 C9,16.7761424 9.22385763,17 9.5,17 L9.5,17 L14.5,17 C14.7761424,17 15,16.7761424 15,16.5 L15,16.5 L15,14.5 C15,14.2238576 14.7761424,14 14.5,14 L14.5,14 Z M5.5,12 L4.5,12 C4.22385763,12 4,12.2238576 4,12.5 L4,12.5 L4,13.5 C4,13.7761424 4.22385763,14 4.5,14 L4.5,14 L5.5,14 C5.77614237,14 6,13.7761424 6,13.5 L6,13.5 L6,12.5 C6,12.2238576 5.77614237,12 5.5,12 L5.5,12 Z M19.5,12 L18.5,12 C18.2238576,12 18,12.2238576 18,12.5 L18,12.5 L18,13.5 C18,13.7761424 18.2238576,14 18.5,14 L18.5,14 L19.5,14 C19.7761424,14 20,13.7761424 20,13.5 L20,13.5 L20,12.5 C20,12.2238576 19.7761424,12 19.5,12 L19.5,12 Z M14.5,10 L9.5,10 C9.22385763,10 9,10.2238576 9,10.5 L9,10.5 L9,12.5 C9,12.7761424 9.22385763,13 9.5,13 L9.5,13 L14.5,13 C14.7761424,13 15,12.7761424 15,12.5 L15,12.5 L15,10.5 C15,10.2238576 14.7761424,10 14.5,10 L14.5,10 Z M5.5,9 L4.5,9 C4.22385763,9 4,9.22385763 4,9.5 L4,9.5 L4,10.5 C4,10.7761424 4.22385763,11 4.5,11 L4.5,11 L5.5,11 C5.77614237,11 6,10.7761424 6,10.5 L6,10.5 L6,9.5 C6,9.22385763 5.77614237,9 5.5,9 L5.5,9 Z M14.5,6 L9.5,6 C9.22385763,6 9,6.22385763 9,6.5 L9,6.5 L9,8.5 C9,8.77614237 9.22385763,9 9.5,9 L9.5,9 L14.5,9 C14.7761424,9 15,8.77614237 15,8.5 L15,8.5 L15,6.5 C15,6.22385763 14.7761424,6 14.5,6 L14.5,6 Z"/>
</svg>
