<svg xmlns="http://www.w3.org/2000/svg" width="100%" height="100%" viewBox="0 0 24 24">
  <g fill="none" fill-rule="evenodd" stroke-linejoin="round" stroke-width="2">
    <path stroke="currentColor" d="M21.424614 3.76794c.97631.976312.97631 2.559224 0 3.535535L9.341667 19.38642c-.131776.131777-.175191.17162-.227562.212547-.05237.040927-.10294.07218-.162967.10072-.060027.028538-.11508.049551-.291877.108483l-4.912317 1.63744h0l1.63744-4.912317c.058931-.176797.079944-.23185.108483-.291877.028539-.060028.059792-.110597.10072-.162968.040927-.05237.08077-.095785.212546-.227562L17.88908 3.767941c.97631-.97631 2.559223-.97631 3.535534 0zM16.563255 5.093766L20.098789 8.6293"/>
    <path stroke="currentColor" stroke-linecap="round" opacity=".5" d="M3.500164 21.500058H.999834"/>
  </g>
</svg>