<svg xmlns="http://www.w3.org/2000/svg" width="100%" height="51" viewBox="0 0 59 51">
  <g fill="none" fill-rule="evenodd" transform="translate(-2.525 -5)">
    <path fill="currentColor" d="M58.5764552,45.4791801 C58.5973186,46.241963 58.6143984,47.2978949 58.6276946,48.6469756 C58.6385608,49.7514809 57.7520071,50.6556838 56.647502,50.6665695 L41.9768036,50.6666667 C40.8722341,50.6666667 39.9768036,49.7712362 39.9768036,48.6666667 L39.9768036,40 C35.5323592,41.7777778 31.9768036,42.6666667 29.310137,42.6666667 C30.4147065,42.6666667 31.310137,41.7712362 31.310137,40.6666667 C31.310137,39.5620972 30.4147065,38.6666667 29.310137,38.6666667 L29.1608746,38.6611809 C28.1260148,38.5848318 27.310137,37.7210285 27.310137,36.6666667 C27.310137,35.6123049 28.1260148,34.7485015 29.1608746,34.6721524 L29.310137,34.6666667 C41.310137,34.6666667 37.310137,20 45.310137,18.6666667 C54.7354343,17.0957838 58.0806225,27.351152 58.5764552,45.4791801 Z M2.6438395,26.43742 L2.643,50.6659932 L1.99271533,50.6666667 C0.888145131,50.6666679 -0.00728593691,49.7712369 -0.00728593691,48.6666667 L-0.00718642515,48.6467158 C0.00651038094,47.27373 0.0241328271,46.2001586 0.0456809132,45.4260016 C0.267381958,37.4609597 1.04315638,31.0195715 2.6438395,26.43742 Z M45.310137,0 C49.728415,0 53.310137,3.581722 53.310137,8 C53.310137,12.418278 49.728415,16 45.310137,16 C40.891859,16 37.310137,12.418278 37.310137,8 C37.310137,3.581722 40.891859,0 45.310137,0 Z" opacity=".5" transform="translate(2.69 5.333)"/>
    <path fill="currentColor" d="M2.73391329,50.8125134 C3.22974602,32.6844853 6.57493417,22.4291171 16.0002315,24 C19.644676,24.6074074 20.79875,27.981893 22.1096252,31.4762853 L22.3028872,31.9882085 C23.830355,36.0001646 25.7335648,40 32.0002315,40 L31.9177788,39.9983333 L31.781196,40.0071386 C30.8191708,40.1006322 30.0567383,40.8757053 29.9829001,41.8433562 L29.9770352,41.9976723 C29.9770352,43.1022418 30.8724657,43.9976723 31.9770352,43.9976723 L31.9770352,43.9976723 L32.1262975,44.003158 C33.1611574,44.0795072 33.9770352,44.9433105 33.9770352,45.9976723 C33.9770352,47.1019071 33.0821473,47.9971296 31.9775276,47.9999786 C29.3133955,47.9949523 25.7654079,47.1060706 21.3335648,45.3333333 L21.3335648,45.3333333 L21.3335648,54 C21.3335648,55.1045695 20.4381343,56 19.3335648,56 L19.3335648,56 L4.66286648,55.9999029 C3.55836137,55.9890172 2.67180766,55.0848143 2.68267391,53.980309 C2.69597007,52.6312282 2.71304986,51.5752963 2.73391329,50.8125134 Z M16,5.33333333 C20.418278,5.33333333 24,8.91505533 24,13.3333333 C24,17.7516113 20.418278,21.3333333 16,21.3333333 C11.581722,21.3333333 8,17.7516113 8,13.3333333 C8,8.91505533 11.581722,5.33333333 16,5.33333333 Z"/>
  </g>
</svg>
