<svg xmlns="http://www.w3.org/2000/svg" width="100%" height="100%" viewBox="0 0 40 48">
  <path fill="currentColor" fill-rule="evenodd" d="M20,0 C22.627417,0 34,9.745166 34,23 C34,23.6183095 33.9796051,24.2202778 33.9402482,24.8060841 L36.9622085,27.3961787 C38.5801816,28.7830128 39.895277,31.5644172 39.9940447,33.738372 L40,33.9962027 L40,42.0037973 C40,44.1481018 38.5302757,45.057597 36.6850945,44.1014194 L36.5213378,44.012193 L27.3575284,38.7768272 C26.49688,39.5060228 25.6118297,40.1066094 24.7417401,40.5835068 L24.3601985,44.3980149 C24.1557178,46.4428221 22.4350555,48 20.3800498,48 L19.6199502,48 C17.5649445,48 15.8442822,46.4428221 15.6398015,44.3980149 L15.2582599,40.5835068 C14.3881703,40.1066094 13.50312,39.5060228 12.6424716,38.7768272 L3.47866218,44.012193 C1.55745011,45.1100285 2.70485856e-11,44.2111696 2.70921063e-11,42.0037973 L2.72493139e-11,33.9962027 C2.72928347e-11,31.7891609 1.35509952,28.8384861 3.03779149,27.3961787 L6.05975179,24.8060841 C6.02039495,24.2202778 6,23.6183095 6,23 C6,9.745166 17.372583,0 20,0 Z M20,32 C19.948992,32 19.8980061,32.0021207 19.8471742,32.0063567 C18.8343343,32.0907601 18.0816876,32.9802515 18.166091,33.9930915 L18.166091,33.9930915 L18.9169545,43.0034542 C18.9638945,43.5667339 19.4347679,44 20,44 C20.5652321,44 21.0361055,43.5667339 21.0830455,43.0034542 L21.0830455,43.0034542 L21.833909,33.9930915 C21.838145,33.9422597 21.8402658,33.8912738 21.8402658,33.8402658 C21.8402658,32.823915 21.0163507,32 20,32 Z M33.1677436,29.4509517 C32.5051188,31.8550861 31.4915555,33.8894789 30.2916418,35.5747013 L36,39 L36,33.0029293 C36,32.4490268 35.6672821,31.7005539 35.2565445,31.33089 Z M6.83225639,29.4509517 L4.74345553,31.33089 C4.37005768,31.6669481 4.06113895,32.3160714 4.00805785,32.8474717 L4,33.0029293 L4,39 L9.70835815,35.5747013 C8.50844451,33.8894789 7.49488124,31.8550861 6.83225639,29.4509517 Z M20,5 C18.2483887,5 10,13.0588745 10,23 C10,28.8263427 12.1462928,32.6321592 14.678324,34.7845269 L14.5970223,33.9702231 C14.2986241,30.986241 16.4757201,28.3253459 19.4597022,28.0269477 C19.6392419,28.0089937 19.8195649,28 20,28 C22.998865,28 25.4299254,30.4310604 25.4299254,33.4299254 C25.4299254,33.6103605 25.4209317,33.7906835 25.4029777,33.9702231 L25.321676,34.7845269 C27.8537072,32.6321592 30,28.8263427 30,23 C30,13.0588745 21.7516113,5 20,5 Z M20,12 C23.3137085,12 26,14.6862915 26,18 C26,21.3137085 23.3137085,24 20,24 C16.6862915,24 14,21.3137085 14,18 C14,14.6862915 16.6862915,12 20,12 Z M20,16 C18.8954305,16 18,16.8954305 18,18 C18,19.1045695 18.8954305,20 20,20 C21.1045695,20 22,19.1045695 22,18 C22,16.8954305 21.1045695,16 20,16 Z"/>
</svg>
