<svg xmlns="http://www.w3.org/2000/svg" width="248" height="105" viewBox="0 0 248 105">
  <g fill="none">
    <path fill="#FFF" d="M119.631836 47.1748763L119.631836 39.2471419C119.631836 38.5322982 119.584961 37.717845 119.491211 36.8037825L119.491211 36.8037825 119.420898 36.0830794 119.631836 36.0830794C121.026367 37.9463607 123.018555 38.8780013 125.608398 38.8780013 128.12793 38.8780013 130.084961 37.9932357 131.479492 36.2237044 132.874023 34.4541732 133.571289 31.9932357 133.571289 28.8408919 133.571289 25.6768294 132.876953 23.224681 131.488281 21.4844466 130.099609 19.7442122 128.151367 18.874095 125.643555 18.874095 124.354492 18.874095 123.217773 19.10847 122.233398 19.57722 121.249023 20.04597 120.381836 20.8076888 119.631836 21.8623763L119.631836 21.8623763 119.491211 21.8623763 119.069336 19.2256575 116.467773 19.2256575 116.467773 47.1748763 119.631836 47.1748763zM125.151367 36.2588607C123.206055 36.2588607 121.799805 35.6758528 120.932617 34.5098372 120.06543 33.3438216 119.631836 31.4541732 119.631836 28.8408919L119.631836 28.8408919 119.631836 28.2256575C119.655273 25.9170638 120.091797 24.2237044 120.941406 23.1455794 121.791016 22.0674544 123.170898 21.5283919 125.081055 21.5283919 126.745117 21.5283919 128.03125 22.1524153 128.939453 23.4004622 129.847656 24.6485091 130.301758 26.4502669 130.301758 28.8057357 130.301758 31.1494857 129.847656 32.9776107 128.939453 34.2901107 128.03125 35.6026107 126.768555 36.2588607 125.151367 36.2588607zM140.655273 38.5264388L140.655273 28.5596419C140.655273 26.0518294 141.109375 24.2530013 142.017578 23.1631575 142.925781 22.0733138 144.358398 21.5283919 146.31543 21.5283919 147.803711 21.5283919 148.896484 21.912181 149.59375 22.6797591 150.291016 23.4473372 150.639648 24.6162825 150.639648 26.186595L150.639648 26.186595 150.639648 38.5264388 153.768555 38.5264388 153.768555 25.9580794C153.768555 23.4971419 153.176758 21.7071028 151.993164 20.5879622 150.80957 19.4688216 149.045898 18.9092513 146.702148 18.9092513 145.37793 18.9092513 144.188476 19.1729232 143.133789 19.7002669 142.079101 20.2276107 141.264648 20.9600325 140.69043 21.8975325L140.69043 21.8975325 140.479492 21.8975325C140.59668 21.1475325 140.655273 20.2451888 140.655273 19.1905013L140.655273 19.1905013 140.655273 11.1748763 137.491211 11.1748763 137.491211 38.5264388 140.655273 38.5264388zM166.389648 38.8780013C169.202148 38.8780013 171.405273 37.9932357 172.999023 36.2237044 174.592773 34.4541732 175.389648 31.9932357 175.389648 28.8408919 175.389648 25.7705794 174.589844 23.3418685 172.990234 21.5547591 171.390625 19.7676497 169.231445 18.874095 166.512695 18.874095 163.676758 18.874095 161.473633 19.7500716 159.90332 21.5020247 158.333008 23.2539778 157.547852 25.7002669 157.547852 28.8408919 157.547852 30.8565169 157.911133 32.6260482 158.637695 34.1494857 159.364258 35.6729232 160.401367 36.8418685 161.749023 37.6563216 163.09668 38.4707747 164.643555 38.8780013 166.389648 38.8780013zM166.477539 36.2588607C164.614258 36.2588607 163.205078 35.6289778 162.25 34.3692122 161.294922 33.1094466 160.817383 31.2666732 160.817383 28.8408919 160.817383 23.9658919 162.686523 21.5283919 166.424805 21.5283919 168.288086 21.5283919 169.703125 22.1406966 170.669922 23.365306 171.636719 24.5899153 172.120117 26.4151107 172.120117 28.8408919 172.120117 31.2666732 171.639648 33.1094466 170.678711 34.3692122 169.717773 35.6289778 168.317383 36.2588607 166.477539 36.2588607zM187.483398 38.8780013C188.760742 38.8780013 189.868164 38.7842513 190.805664 38.5967513 191.743164 38.4092513 192.745117 38.0869857 193.811523 37.6299544L193.811523 37.6299544 193.811523 34.8526107C192.569336 35.3799544 191.485352 35.7344466 190.55957 35.9160872 189.633789 36.0977278 188.655273 36.1885482 187.624023 36.1885482 185.69043 36.1885482 184.196289 35.6201888 183.141602 34.48347 182.086914 33.3467513 181.530273 31.6826888 181.47168 29.4912825L181.47168 29.4912825 194.69043 29.4912825 194.69043 27.5752669C194.69043 24.9033919 193.969727 22.7852278 192.52832 21.2207747 191.086914 19.6563216 189.15332 18.874095 186.727539 18.874095 184.114258 18.874095 182.040039 19.7910872 180.504883 21.6250716 178.969727 23.459056 178.202148 25.9229232 178.202148 29.0166732 178.202148 32.0869857 179.025391 34.4981185 180.671875 36.2500716 182.318359 38.0020247 184.588867 38.8780013 187.483398 38.8780013zM191.368164 26.9776107L181.541992 26.9776107C181.706055 25.2432357 182.227539 23.88972 183.106445 22.9170638 183.985352 21.9444075 185.180664 21.4580794 186.692383 21.4580794 188.168945 21.4580794 189.311523 21.9268294 190.120117 22.8643294 190.928711 23.8018294 191.344727 25.1729232 191.368164 26.9776107L191.368164 26.9776107zM201.616211 38.5264388L201.616211 28.5244857C201.616211 26.0518294 202.064453 24.2676497 202.960938 23.1719466 203.857422 22.0762435 205.295898 21.5283919 207.276367 21.5283919 208.764648 21.5283919 209.857422 21.912181 210.554688 22.6797591 211.251953 23.4473372 211.600586 24.6162825 211.600586 26.186595L211.600586 26.186595 211.600586 38.5264388 214.729492 38.5264388 214.729492 25.9580794C214.729492 23.5322982 214.155273 21.7451888 213.006836 20.5967513 211.858398 19.4483138 210.100586 18.874095 207.733398 18.874095 206.432617 18.874095 205.243164 19.1348372 204.165039 19.6563216 203.086914 20.177806 202.249023 20.9131575 201.651367 21.8623763L201.651367 21.8623763 201.475586 21.8623763 201.000977 19.2256575 198.452148 19.2256575 198.452148 38.5264388 201.616211 38.5264388zM221.198242 16.0264388C221.69043 16.0264388 222.121094 15.8623763 222.490234 15.5342513 222.859375 15.2061263 223.043945 14.6963607 223.043945 14.0049544 223.043945 13.3018294 222.859375 12.7920638 222.490234 12.4756575 222.121094 12.1592513 221.69043 12.0010482 221.198242 12.0010482 220.670898 12.0010482 220.228516 12.1592513 219.871094 12.4756575 219.513672 12.7920638 219.334961 13.3018294 219.334961 14.0049544 219.334961 14.6963607 219.513672 15.2061263 219.871094 15.5342513 220.228516 15.8623763 220.670898 16.0264388 221.198242 16.0264388zM222.745117 38.5264388L222.745117 19.2256575 219.581055 19.2256575 219.581055 38.5264388 222.745117 38.5264388zM228.897461 38.5264388L234.223633 30.82722 239.479492 38.5264388 243.083008 38.5264388 236.051758 28.6651107 242.713867 19.2256575 239.145508 19.2256575 234.223633 26.5030013 229.249024 19.2256575 225.645508 19.2256575 232.307617 28.6651107 225.329102 38.5264388 228.897461 38.5264388zM123.809082 101.165621L123.809082 88.336519C123.809082 87.9211544 123.658041 86.3918575 123.355957 83.7486283L123.355957 83.7486283 123.809082 83.7486283C125.923666 86.4484981 128.840658 87.798433 132.560059 87.798433 135.033366 87.798433 137.18571 87.1470658 139.01709 85.8443315 140.84847 84.5415971 142.259766 82.6441361 143.250977 80.1519486 144.242188 77.6597611 144.737793 74.7238887 144.737793 71.3443315 144.737793 66.2089148 143.680502 62.1968705 141.565918 59.3081986 139.451335 56.4195268 136.524903 54.9751908 132.786621 54.9751908 128.821778 54.9751908 125.829265 56.5422481 123.809082 59.6763627L123.809082 59.6763627 123.412598 59.6763627 122.194825 55.5699174 115.171387 55.5699174 115.171387 101.165621 123.809082 101.165621zM130.124512 80.8033158C127.934408 80.8033158 126.33431 80.0669877 125.324219 78.5943315 124.314128 77.1216752 123.809082 74.6861283 123.809082 71.2876908L123.809082 71.2876908 123.809082 70.3531205C123.846843 67.3322872 124.356608 65.1657833 125.338379 63.8536088 126.32015 62.5414343 127.877767 61.8853471 130.011231 61.8853471 132.050293 61.8853471 133.54655 62.6641557 134.5 64.2217729 135.453451 65.77939 135.930176 68.1158158 135.930176 71.2310502 135.930176 77.6125606 133.994955 80.8033158 130.124512 80.8033158zM164.39209 87.798433C166.865397 87.798433 168.9611 87.614351 170.679199 87.2461869 172.397298 86.8780229 174.011556 86.3163367 175.521973 85.5611283L175.521973 85.5611283 175.521973 78.8775346C173.671712 79.7460242 171.896973 80.3785111 170.197754 80.7749955 168.498535 81.1714799 166.695475 81.3697221 164.788574 81.3697221 162.334147 81.3697221 160.427246 80.6805945 159.067871 79.3023393 157.708496 77.9240841 156.981608 76.0077429 156.887207 73.5533158L156.887207 73.5533158 177.306152 73.5533158 177.306152 69.3619096C177.306152 64.86842 176.060059 61.3472611 173.567871 58.798433 171.075684 56.2496049 167.592285 54.9751908 163.117676 54.9751908 158.435384 54.9751908 154.767904 56.4242468 152.115235 59.3223588 149.462565 62.2204708 148.136231 66.322196 148.136231 71.6275346 148.136231 76.7818315 149.571126 80.7655554 152.440918 83.5787065 155.31071 86.3918575 159.294434 87.798433 164.39209 87.798433zM169.206543 67.8042924L157.085449 67.8042924C157.236491 65.6708288 157.831218 64.0235307 158.869629 62.8623979 159.908041 61.701265 161.342936 61.1206986 163.174317 61.1206986 165.005697 61.1206986 166.459473 61.701265 167.535645 62.8623979 168.611817 64.0235307 169.168783 65.6708288 169.206543 67.8042924L169.206543 67.8042924zM190.220215 87.798433C192.693522 87.798433 194.699544 87.4444291 196.238281 86.7364213 197.777018 86.0284135 199.273275 84.7587195 200.727051 82.9273393L200.727051 82.9273393 200.953613 82.9273393 202.624512 87.2320268 208.656738 87.2320268 208.656738 66.133394C208.656738 62.3573523 207.523926 59.5442012 205.258301 57.6939408 202.992676 55.8436804 199.73584 54.9185502 195.487793 54.9185502 191.050944 54.9185502 187.010579 55.8720007 183.366699 57.7789018L183.366699 57.7789018 186.227051 63.6128861C189.644368 62.0835893 192.618001 61.3189408 195.147949 61.3189408 198.433105 61.3189408 200.075684 62.9237585 200.075684 66.133394L200.075684 66.133394 200.075684 67.5210893 194.581543 67.6910111C189.842611 67.860933 186.297852 68.7435828 183.947266 70.3389604 181.59668 71.934338 180.421387 74.4123653 180.421387 77.7730424 180.421387 80.9826778 181.294596 83.4559851 183.041016 85.1929643 184.787435 86.9299434 187.180501 87.798433 190.220215 87.798433zM193.477051 81.4830033C190.68278 81.4830033 189.285645 80.2652299 189.285645 77.829683 189.285645 76.1304643 189.899251 74.8654903 191.126465 74.0347611 192.353678 73.204032 194.222819 72.750907 196.733887 72.6753861L196.733887 72.6753861 200.075684 72.5621049 200.075684 75.1675736C200.075684 77.0744747 199.476237 78.6037716 198.277344 79.7554643 197.078451 80.907157 195.478353 81.4830033 193.477051 81.4830033zM224.374512 87.2320268L224.374512 77.376558 228.084473 74.4029252 237.203613 87.2320268 247.172363 87.2320268 233.833496 69.305269 246.407715 55.5699174 236.665527 55.5699174 227.801269 65.1988236 224.034668 70.0132768 223.921387 70.0132768 224.374512 62.8199174 224.374512 43.1656205 215.736816 43.1656205 215.736816 87.2320268 224.374512 87.2320268z"/>
    <g transform="translate(.96 11)">
      <path fill="#0AF" d="M39.276442,11.1679296 C42.7672756,11.7153863 45.5202094,13.8187722 47.1804839,17.2331726 C47.4642915,17.7806293 49.422564,23.1543481 51.5653114,29.1475574 C53.7080589,35.1551734 55.4960468,40.0678761 55.5528083,40.0678761 C55.5953795,40.0678761 55.9359486,39.5060128 56.3048985,38.8000819 C58.0503153,35.5153422 59.6396379,33.7144981 61.6830527,32.7204321 C65.798263,30.7178934 70.6939442,32.6483983 73.035357,37.1721188 C73.3049742,37.6907619 76.7532366,46.8678635 80.7123528,57.572081 C87.3534508,75.5228952 87.921066,77.107638 87.9778275,78.101704 C88.0345891,78.9805159 87.9920179,79.3406847 87.7365911,80.0466156 C87.3534508,81.0694951 86.4452664,82.0491543 85.3809879,82.5822042 C84.4160421,83.057627 82.7273868,83.0720338 81.7056794,82.5966109 C80.8826373,82.2076286 79.8751203,81.2711896 79.5061704,80.5364452 C79.3500763,80.2483102 76.1288599,71.5898516 72.325838,61.30343 C68.5370064,51.0170084 65.3441708,42.5026174 65.2448381,42.3873634 C65.1455055,42.2865161 64.9894113,42.2288891 64.9184594,42.2865161 C64.7481748,42.3873634 62.9459965,45.7873571 60.4059184,50.8009071 C59.4125918,52.7746322 58.3908844,54.6186966 58.1354576,54.9068317 C57.8800307,55.1949667 57.3266059,55.6127626 56.9150849,55.8576774 C56.2339466,56.232253 56.0352813,56.2754732 54.8149086,56.2754732 C53.6938685,56.2754732 53.3674898,56.2178462 52.8708264,55.9441179 C52.033594,55.4975086 51.3524557,54.8492047 50.9409347,54.1432738 C50.7564598,53.8119185 47.9893356,46.2483731 44.7965,37.3305931 C38.6094941,20.0280827 38.7372076,20.3306245 37.8006425,20.3306245 C37.2897888,20.3306245 36.9208389,20.6619799 36.5376986,21.4399445 C36.3816044,21.7424863 31.4859232,34.881445 25.6536768,50.6568396 C19.8356209,66.4178273 14.8689877,79.7728873 14.6277513,80.3059372 C13.8472804,82.0203408 12.3572904,83 10.4841602,83 C9.12188369,83 8.34141276,82.6686447 7.34808614,81.6457652 C6.35475951,80.6228858 6,79.7728873 6,78.4186526 C6,77.5686541 6.70951902,75.6093357 16.9975448,47.775489 C23.0426469,31.4094176 28.1653742,17.679782 28.3640395,17.2763929 C29.016797,15.9653784 29.7688872,14.9713124 30.918308,13.8475857 C32.521821,12.3060631 34.35238,11.3840309 36.3957948,11.1247094 C37.7155002,10.9518284 37.8857847,10.9518284 39.276442,11.1679296 L39.276442,11.1679296 Z"/>
      <path fill="#FFF" d="M39.1159299,0.194433938 C43.2193495,0.82829549 46.4553795,3.26365829 48.4070058,7.2169527 C48.7406172,7.85081426 51.0425354,14.0726658 53.5613011,21.0117817 C56.0800667,27.9675782 58.1818182,33.6556516 58.2485405,33.6556516 C58.2985822,33.6556516 58.6989158,33.0051095 59.1326105,32.1877617 C61.1843203,28.3845924 63.0525438,26.2995215 65.4545455,25.1485624 C70.2919099,22.8299635 76.0467056,25.0651595 78.7989992,30.3028576 C79.1159299,30.903358 83.1693078,41.5288793 87.823186,53.9225407 C95.6296914,74.7065273 96.2969141,76.5413897 96.3636364,77.6923489 C96.4303586,78.7098635 96.3803169,79.1268776 96.0800667,79.9442254 C95.6296914,81.1285457 94.5621351,82.2628243 93.3110926,82.8800052 C92.176814,83.430464 90.1918265,83.4471445 88.9908257,82.8966858 C88.0233528,82.4463105 86.8390325,81.3620736 86.4053378,80.5113647 C86.2218515,80.1777534 82.4353628,70.1527325 77.9649708,58.2428076 C73.5112594,46.3328826 69.7581318,36.4746675 69.6413678,36.3412229 C69.5246038,36.224459 69.3411176,36.1577367 69.2577148,36.224459 C69.057548,36.3412229 66.9391159,40.2778368 63.9532944,46.0826741 C62.7856547,48.3679118 61.5846539,50.5030244 61.2844037,50.8366358 C60.9841535,51.1702471 60.3336113,51.6539836 59.8498749,51.9375532 C59.0492077,52.3712479 58.8156797,52.4212897 57.381151,52.4212897 C56.0633862,52.4212897 55.6797331,52.3545674 55.0959133,52.0376366 C54.1117598,51.520539 53.3110926,50.7699135 52.8273561,49.9525657 C52.6105088,49.5689127 49.3577982,40.8116149 45.6046706,30.4863439 C38.3319433,10.4529827 38.4820684,10.8032746 37.381151,10.8032746 C36.7806505,10.8032746 36.3469558,11.1869277 35.8965805,12.0876783 C35.7130942,12.4379702 29.9582986,27.6506474 23.1025855,45.9158685 C16.263553,64.1644089 10.4253545,79.6272947 10.1417848,80.2444756 C9.22435363,82.2294631 7.47289408,83.3637417 5.27105922,83.3637417 C3.66972477,83.3637417 2.75229358,82.9800887 1.58465388,81.7957684 C0.417014178,80.6114481 -5.18696197e-13,79.6272947 -5.18696197e-13,78.0593213 C-5.18696197e-13,77.0751679 0.834028357,74.8066108 12.9274395,42.579755 C20.0333611,23.6306308 26.0550459,7.73405029 26.2885738,7.26699441 C27.0558799,5.7490628 27.93995,4.59810366 29.2910759,3.29701943 C31.17598,1.51219874 33.3277731,0.444642445 35.7297748,0.144392237 C37.2810676,-0.0557745688 37.4812344,-0.0557745688 39.1159299,0.194433938 L39.1159299,0.194433938 Z"/>
    </g>
  </g>
</svg>
