<?xml version="1.0" encoding="UTF-8"?>
<svg width="104px" height="39px" viewBox="0 0 104 39" version="1.1" xmlns="http://www.w3.org/2000/svg" xmlns:xlink="http://www.w3.org/1999/xlink">
    <title>Logo Inverted</title>
    <g id="Website" stroke="none" stroke-width="1" fill="none" fill-rule="evenodd">
        <g transform="translate(-665.000000, -7615.000000)" id="Group">
            <g transform="translate(665.000000, 7611.000000)">
                <g id="Logo" transform="translate(-0.423077, 0.000000)">
                    <text id="phoenix" font-family="NotoSans, Noto Sans" font-size="15.2307692" font-weight="normal" letter-spacing="-0.475961538" fill="#FFFFFF">
                        <tspan x="47.9808068" y="16.1253648">phoenix</tspan>
                    </text>
                    <text id="peak" font-family="NotoSans-Bold, Noto Sans" font-size="24.5384615" font-weight="bold" letter-spacing="-0.766826974" fill="#FFFFFF">
                        <tspan x="46.8092887" y="36.4162779">peak</tspan>
                    </text>
                    <g id="Icon" transform="translate(0.406140, 4.609524)" fill-rule="nonzero">
                        <path d="M16.6169562,4.67989433 C18.0938474,4.90930472 19.2585501,5.79072359 19.960974,7.22151997 C20.0810464,7.45093036 20.9095463,9.70277445 21.8160933,12.2142145 C22.7226403,14.7316917 23.4790967,16.7903481 23.5031112,16.7903481 C23.5211221,16.7903481 23.665209,16.5549006 23.8213032,16.2590819 C24.5597488,14.8826196 25.2321545,14.1279801 26.0966761,13.7114192 C27.8377266,12.8722601 29.9089764,13.6812336 30.8995741,15.5768879 C31.0136429,15.794224 32.4725232,19.6398666 34.1475339,24.1254435 C36.9572292,31.6476894 37.1973741,32.3117721 37.2213886,32.7283331 C37.2454031,33.0965971 37.2273922,33.247525 37.119327,33.5433437 C36.9572292,33.9719789 36.5729973,34.3825028 36.1227257,34.605876 C35.7144793,34.8051008 35.0000483,34.811138 34.5677874,34.6119131 C34.2195773,34.448911 33.7933201,34.0564985 33.637226,33.7486056 C33.5711861,33.6278633 32.2083638,29.9995569 30.599393,25.6890564 C28.9964258,21.3785559 27.6456107,17.8106206 27.6035854,17.7623237 C27.56156,17.7200639 27.4955202,17.6959154 27.4655021,17.7200639 C27.3934586,17.7623237 26.6309985,19.187083 25.5563501,21.2879992 C25.1360965,22.115084 24.7038357,22.8878348 24.5957705,23.0085771 C24.4877053,23.1293194 24.253564,23.3043958 24.079459,23.4070267 C23.7912851,23.5639917 23.7072344,23.5821031 23.1909228,23.5821031 C22.7166367,23.5821031 22.5785534,23.5579546 22.3684266,23.4432494 C22.0142128,23.2560988 21.726039,22.9844286 21.5519339,22.68861 C21.4738868,22.5497563 20.3031804,19.3802707 18.9523654,15.6432961 C16.334786,8.39272038 16.3888186,8.51949981 15.9925795,8.51949981 C15.7764491,8.51949981 15.6203549,8.65835346 15.4582571,8.9843577 C15.3922173,9.11113713 13.3209675,14.6169865 10.8534787,21.227628 C8.39199345,27.8322324 6.29072558,33.4286385 6.188664,33.6520118 C5.85846477,34.3704285 5.22808441,34.7809524 4.43560624,34.7809524 C3.85925848,34.7809524 3.52905925,34.6420987 3.10880567,34.2134635 C2.6885521,33.7848283 2.53846154,33.4286385 2.53846154,32.8611496 C2.53846154,32.5049598 2.83864266,31.6839121 7.19126896,20.0202049 C9.74881213,13.1620417 11.9161198,7.40867055 12.0001706,7.23963131 C12.2763372,6.6902538 12.5945292,6.27369283 13.0808226,5.80279782 C13.7592319,5.15682645 14.5336992,4.77045106 15.3982209,4.66178298 C15.9565578,4.58933759 16.0286012,4.58933759 16.6169562,4.67989433 L16.6169562,4.67989433 Z" id="Path" fill="#00AAFF"></path>
                        <path d="M16.5490473,0.0814770789 C18.2851094,0.347095253 19.654199,1.36762824 20.4798871,3.02424685 C20.6210303,3.28986502 21.5949188,5.8971171 22.6605505,8.80493711 C23.7261821,11.7197471 24.6153846,14.1033207 24.6436133,14.1033207 C24.6647848,14.1033207 24.8341567,13.8307126 25.0176429,13.4882049 C25.885674,11.8944959 26.6760762,11.0207519 27.6923077,10.5384452 C29.738885,9.56684187 32.1736062,10.5034954 33.3380381,12.6983403 C33.4721242,12.9499786 35.1870148,17.402578 37.1559633,22.5961123 C40.4587156,31.3055924 40.7410021,32.0744871 40.7692308,32.5567938 C40.7974594,32.9831809 40.7762879,33.1579297 40.649259,33.5004373 C40.4587156,33.9967239 40.0070572,34.4720406 39.4777699,34.7306689 C38.9978829,34.9613373 38.1580805,34.9683272 37.6499647,34.7376588 C37.2406493,34.5489301 36.7395907,34.0945832 36.5561044,33.7380957 C36.4784757,33.5982967 34.8764996,29.3973355 32.98518,24.4065098 C31.1009174,19.4156842 29.5130558,15.2846226 29.4636556,15.2287029 C29.4142555,15.1797733 29.3366267,15.1518135 29.3013409,15.1797733 C29.2166549,15.2287029 28.3203952,16.8783316 27.057163,19.3108349 C26.5631616,20.2684583 26.0550459,21.1631721 25.9280169,21.3029712 C25.800988,21.4427702 25.5257586,21.6454788 25.3211009,21.764308 C24.9823571,21.9460468 24.8835568,21.9670166 24.2766408,21.9670166 C23.7191249,21.9670166 23.5568102,21.9390568 23.3098095,21.8062477 C22.8934368,21.5895592 22.554693,21.2750114 22.3500353,20.9325037 C22.2582922,20.7717348 20.8821454,17.1020101 19.2942837,12.7752298 C16.2173606,4.38029752 16.2808751,4.52708652 15.8151023,4.52708652 C15.5610445,4.52708652 15.3775582,4.68785541 15.1870148,5.06531282 C15.109386,5.21210181 12.6746648,11.586938 9.77417078,19.2409354 C6.88073394,26.8879428 4.41072689,33.3676282 4.29075512,33.6262565 C3.90261115,34.4580607 3.16160903,34.9333775 2.23006351,34.9333775 C1.55257586,34.9333775 1.1644319,34.7726086 0.670430487,34.276322 C0.176429076,33.7800354 -2.19448391e-13,33.3676282 -2.19448391e-13,32.7105728 C-2.19448391e-13,32.2981656 0.352858151,31.3475321 5.46930134,17.842945 C8.47565279,9.90235956 11.0232886,3.24093536 11.1220889,3.0452167 C11.4467184,2.40913108 11.8207481,1.92682439 12.3923783,1.38160814 C13.1898377,0.633683282 14.1002117,0.186326358 15.1164432,0.0605072231 C15.7727594,-0.0233722003 15.8574453,-0.0233722003 16.5490473,0.0814770789 L16.5490473,0.0814770789 Z" id="Path" fill="#FFFFFF"></path>
                    </g>
                </g>
            </g>
        </g>
    </g>
</svg>