<svg xmlns="http://www.w3.org/2000/svg" width="260" height="105" viewBox="0 0 260 105">
  <g fill="none" fill-rule="evenodd" transform="translate(-1)">
    <text fill="#333B40" font-family="NotoSans, Noto Sans" font-size="36" letter-spacing="-1.125">
      <tspan x="113.409" y="38.526">phoenix</tspan>
    </text>
    <text fill="#333B40" font-family="NotoSans-Bold, Noto Sans" font-size="58" font-weight="bold" letter-spacing="-1.813">
      <tspan x="110.64" y="87.232">peak</tspan>
    </text>
    <g fill-rule="nonzero" transform="translate(.96 11)">
      <path fill="#0AF" d="M39.0880626,10.5340037 C42.6640384,11.0890639 45.4841169,13.2216635 47.1848859,16.6834862 C47.4756157,17.2385464 49.4816509,22.6869002 51.6766605,28.7633485 C53.8716701,34.8544036 55.7032675,39.8353383 55.7614134,39.8353383 C55.8050229,39.8353383 56.1538986,39.2656713 56.5318472,38.5499358 C58.3198352,35.2195747 59.9479217,33.3937189 62.0411759,32.3858465 C66.2567572,30.3554948 71.2718453,32.3128122 73.6703657,36.8993621 C73.9465589,37.4252086 77.4789253,46.72977 81.5346053,57.5826571 C88.3376813,75.7827882 88.9191408,77.3895414 88.9772867,78.3974138 C89.0354327,79.2884314 88.9918232,79.6536026 88.7301665,80.3693381 C88.3376813,81.4064242 87.4073461,82.3996898 86.3171096,82.9401431 C85.3286284,83.4221691 83.5987865,83.4367759 82.5521594,82.95475 C81.7090431,82.5603651 80.6769525,81.6109201 80.2990039,80.8659709 C80.1391025,80.573834 76.8393199,71.7951191 72.9435413,61.3658305 C69.0622992,50.9365419 65.7915896,42.3038954 65.6898342,42.1870406 C65.5880788,42.0847927 65.4281774,42.0263653 65.355495,42.0847927 C65.1810571,42.1870406 63.3349233,45.6342565 60.732892,50.7174392 C59.7153379,52.7185772 58.6687109,54.5882536 58.4070541,54.8803905 C58.1453973,55.1725274 57.5784743,55.596126 57.1569162,55.8444424 C56.4591648,56.2242204 56.255654,56.2680409 55.0055161,56.2680409 C53.8571336,56.2680409 53.5227944,56.2096135 53.0140173,55.9320835 C52.1563646,55.4792712 51.4586132,54.8219631 51.0370551,54.1062276 C50.8480807,53.7702701 48.0134657,46.1016756 44.7427561,37.0600374 C38.4048477,19.5172145 38.535676,19.8239582 37.5762679,19.8239582 C37.0529543,19.8239582 36.6750057,20.1599157 36.2825205,20.9486854 C36.1226192,21.2554292 31.1075311,34.5768735 25.1330348,50.5713707 C19.1730751,66.5512611 14.0853045,80.091808 13.8381842,80.6322613 C13.0386774,82.3704761 11.5123463,83.3637417 9.59352997,83.3637417 C8.19802719,83.3637417 7.39852039,83.0277842 6.38096629,81.9906981 C5.36341218,80.953612 5,80.091808 5,78.7187644 C5,77.8569605 5.72682436,75.8704293 16.2657776,47.6500013 C22.4583212,31.0566234 27.7059931,17.1362984 27.9095039,16.7273067 C28.5781823,15.3980837 29.3486161,14.3902112 30.5260716,13.2508772 C32.1686946,11.6879446 34.0439015,10.7531064 36.1371557,10.4901832 C37.489049,10.314901 37.6634868,10.314901 39.0880626,10.5340037 L39.0880626,10.5340037 Z"/>
      <path fill="#000" d="M39.1159299,0.194433938 C43.2193495,0.82829549 46.4553795,3.26365829 48.4070058,7.2169527 C48.7406172,7.85081426 51.0425354,14.0726658 53.5613011,21.0117817 C56.0800667,27.9675782 58.1818182,33.6556516 58.2485405,33.6556516 C58.2985822,33.6556516 58.6989158,33.0051095 59.1326105,32.1877617 C61.1843203,28.3845924 63.0525438,26.2995215 65.4545455,25.1485624 C70.2919099,22.8299635 76.0467056,25.0651595 78.7989992,30.3028576 C79.1159299,30.903358 83.1693078,41.5288793 87.823186,53.9225407 C95.6296914,74.7065273 96.2969141,76.5413897 96.3636364,77.6923489 C96.4303586,78.7098635 96.3803169,79.1268776 96.0800667,79.9442254 C95.6296914,81.1285457 94.5621351,82.2628243 93.3110926,82.8800052 C92.176814,83.430464 90.1918265,83.4471445 88.9908257,82.8966858 C88.0233528,82.4463105 86.8390325,81.3620736 86.4053378,80.5113647 C86.2218515,80.1777534 82.4353628,70.1527325 77.9649708,58.2428076 C73.5112594,46.3328826 69.7581318,36.4746675 69.6413678,36.3412229 C69.5246038,36.224459 69.3411176,36.1577367 69.2577148,36.224459 C69.057548,36.3412229 66.9391159,40.2778368 63.9532944,46.0826741 C62.7856547,48.3679118 61.5846539,50.5030244 61.2844037,50.8366358 C60.9841535,51.1702471 60.3336113,51.6539836 59.8498749,51.9375532 C59.0492077,52.3712479 58.8156797,52.4212897 57.381151,52.4212897 C56.0633862,52.4212897 55.6797331,52.3545674 55.0959133,52.0376366 C54.1117598,51.520539 53.3110926,50.7699135 52.8273561,49.9525657 C52.6105088,49.5689127 49.3577982,40.8116149 45.6046706,30.4863439 C38.3319433,10.4529827 38.4820684,10.8032746 37.381151,10.8032746 C36.7806505,10.8032746 36.3469558,11.1869277 35.8965805,12.0876783 C35.7130942,12.4379702 29.9582986,27.6506474 23.1025855,45.9158685 C16.263553,64.1644089 10.4253545,79.6272947 10.1417848,80.2444756 C9.22435363,82.2294631 7.47289408,83.3637417 5.27105922,83.3637417 C3.66972477,83.3637417 2.75229358,82.9800887 1.58465388,81.7957684 C0.417014178,80.6114481 -5.18696197e-13,79.6272947 -5.18696197e-13,78.0593213 C-5.18696197e-13,77.0751679 0.834028357,74.8066108 12.9274395,42.579755 C20.0333611,23.6306308 26.0550459,7.73405029 26.2885738,7.26699441 C27.0558799,5.7490628 27.93995,4.59810366 29.2910759,3.29701943 C31.17598,1.51219874 33.3277731,0.444642445 35.7297748,0.144392237 C37.2810676,-0.0557745688 37.4812344,-0.0557745688 39.1159299,0.194433938 L39.1159299,0.194433938 Z"/>
    </g>
  </g>
</svg>
