<svg xmlns="http://www.w3.org/2000/svg" width="59" height="62" viewBox="0 0 59 62">
  <defs>
    <filter id="checklistitemchecked-a">
      <feColorMatrix in="SourceGraphic" values="0 0 0 0 0.633333 0 0 0 0 0.475000 0 0 0 0 0.950000 0 0 0 1.000000 0"/>
    </filter>
  </defs>
  <g fill="none" fill-rule="evenodd" filter="url(#checklistitemchecked-a)" transform="translate(-2.525 .17)">
    <path fill="currentColor" d="M21.3333333,12.6666667 C21.3333333,11.5620972 22.2287638,10.6666667 23.3333333,10.6666667 L30.6666667,10.666 L30.6666667,1 C30.6666667,0.44771525 31.1143819,1.01453063e-16 31.6666667,0 L32.3333333,0 C32.8856181,-1.01453063e-16 33.3333333,0.44771525 33.3333333,1 L33.3326667,10.666 L40.6666667,10.6666667 C41.7712362,10.6666667 42.6666667,11.5620972 42.6666667,12.6666667 L42.6666667,58.6666667 L45.3333333,58.6666667 L45.3333333,24 L54.8944272,28.7805469 C55.5719952,29.119331 56,29.8118572 56,30.5694013 L56,58.6666667 L60,58.6666667 C60.7363797,58.6666667 61.3333333,59.2636203 61.3333333,60 C61.3333333,60.7363797 60.7363797,61.3333333 60,61.3333333 L4,61.3333333 C3.26362033,61.3333333 2.66666667,60.7363797 2.66666667,60 C2.66666667,59.2636203 3.26362033,58.6666667 4,58.6666667 L21.3333333,58.6666667 L21.3333333,12.6666667 Z M16.6666667,18.6666667 C17.7712362,18.6666667 18.6666667,19.5620972 18.6666667,20.6666667 L18.6666667,58.6666667 L8,58.6666667 L8,20.6666667 C8,19.5620972 8.8954305,18.6666667 10,18.6666667 L16.6666667,18.6666667 Z M15,48 L11.6666667,48 C11.1143819,48 10.6666667,48.4477153 10.6666667,49 L10.6666667,49 L10.6666667,52.3333333 C10.6666667,52.8856181 11.1143819,53.3333333 11.6666667,53.3333333 L11.6666667,53.3333333 L15,53.3333333 C15.5522847,53.3333333 16,52.8856181 16,52.3333333 L16,52.3333333 L16,49 C16,48.4477153 15.5522847,48 15,48 L15,48 Z M52.3333333,48 L49,48 C48.4477153,48 48,48.4477153 48,49 L48,49 L48,52.3333333 C48,52.8856181 48.4477153,53.3333333 49,53.3333333 L49,53.3333333 L52.3333333,53.3333333 C52.8856181,53.3333333 53.3333333,52.8856181 53.3333333,52.3333333 L53.3333333,52.3333333 L53.3333333,49 C53.3333333,48.4477153 52.8856181,48 52.3333333,48 L52.3333333,48 Z M15,40 L11.6666667,40 C11.1143819,40 10.6666667,40.4477153 10.6666667,41 L10.6666667,41 L10.6666667,44.3333333 C10.6666667,44.8856181 11.1143819,45.3333333 11.6666667,45.3333333 L11.6666667,45.3333333 L15,45.3333333 C15.5522847,45.3333333 16,44.8856181 16,44.3333333 L16,44.3333333 L16,41 C16,40.4477153 15.5522847,40 15,40 L15,40 Z M52.3333333,40 L49,40 C48.4477153,40 48,40.4477153 48,41 L48,41 L48,44.3333333 C48,44.8856181 48.4477153,45.3333333 49,45.3333333 L49,45.3333333 L52.3333333,45.3333333 C52.8856181,45.3333333 53.3333333,44.8856181 53.3333333,44.3333333 L53.3333333,44.3333333 L53.3333333,41 C53.3333333,40.4477153 52.8856181,40 52.3333333,40 L52.3333333,40 Z M39,37.3333333 L25,37.3333333 C24.4477153,37.3333333 24,37.7810486 24,38.3333333 L24,38.3333333 L24,44.3333333 C24,44.8856181 24.4477153,45.3333333 25,45.3333333 L25,45.3333333 L39,45.3333333 C39.5522847,45.3333333 40,44.8856181 40,44.3333333 L40,44.3333333 L40,38.3333333 C40,37.7810486 39.5522847,37.3333333 39,37.3333333 L39,37.3333333 Z M15,32 L11.6666667,32 C11.1143819,32 10.6666667,32.4477153 10.6666667,33 L10.6666667,33 L10.6666667,36.3333333 C10.6666667,36.8856181 11.1143819,37.3333333 11.6666667,37.3333333 L11.6666667,37.3333333 L15,37.3333333 C15.5522847,37.3333333 16,36.8856181 16,36.3333333 L16,36.3333333 L16,33 C16,32.4477153 15.5522847,32 15,32 L15,32 Z M52.3333333,32 L49,32 C48.4477153,32 48,32.4477153 48,33 L48,33 L48,36.3333333 C48,36.8856181 48.4477153,37.3333333 49,37.3333333 L49,37.3333333 L52.3333333,37.3333333 C52.8856181,37.3333333 53.3333333,36.8856181 53.3333333,36.3333333 L53.3333333,36.3333333 L53.3333333,33 C53.3333333,32.4477153 52.8856181,32 52.3333333,32 L52.3333333,32 Z M39,26.6666667 L25,26.6666667 C24.4477153,26.6666667 24,27.1143819 24,27.6666667 L24,27.6666667 L24,33.6666667 C24,34.2189514 24.4477153,34.6666667 25,34.6666667 L25,34.6666667 L39,34.6666667 C39.5522847,34.6666667 40,34.2189514 40,33.6666667 L40,33.6666667 L40,27.6666667 C40,27.1143819 39.5522847,26.6666667 39,26.6666667 L39,26.6666667 Z M15,24 L11.6666667,24 C11.1143819,24 10.6666667,24.4477153 10.6666667,25 L10.6666667,25 L10.6666667,28.3333333 C10.6666667,28.8856181 11.1143819,29.3333333 11.6666667,29.3333333 L11.6666667,29.3333333 L15,29.3333333 C15.5522847,29.3333333 16,28.8856181 16,28.3333333 L16,28.3333333 L16,25 C16,24.4477153 15.5522847,24 15,24 L15,24 Z M39,16 L25,16 C24.4477153,16 24,16.4477153 24,17 L24,17 L24,23 C24,23.5522847 24.4477153,24 25,24 L25,24 L39,24 C39.5522847,24 40,23.5522847 40,23 L40,23 L40,17 C40,16.4477153 39.5522847,16 39,16 L39,16 Z"/>
  </g>
</svg>
