<svg xmlns="http://www.w3.org/2000/svg" width="48" height="38" viewBox="0 0 48 38">
  <g fill="currentColor" fill-rule="evenodd" transform="translate(0 -4)">
    <path d="M29.9991242,6.00019098 C29.1257664,7.16297513 28.4999829,8.52233737 28.2000324,10.0000191 L11.1277704,10 C9.80406657,10 9.40096145,10.0778432 8.98950631,10.2978918 C8.68619141,10.4601064 8.46010639,10.6861914 8.2978918,10.9895063 C8.09159623,11.3752455 8.01028589,11.7536458 8.00092794,12.8901374 L8,32.8722296 C8,34.1959334 8.07784319,34.5990386 8.2978918,35.0104937 C8.46010639,35.3138086 8.68619141,35.5398936 8.98950631,35.7021082 C9.40096145,35.9221568 9.80406657,36 11.1277704,36 L18,36 L18,30 C18,26.6862915 20.6862915,24 24,24 C27.3137085,24 30,26.6862915 30,30 L30,36 L36.8722296,36 C38.1959334,36 38.5990386,35.9221568 39.0104937,35.7021082 C39.3138086,35.5398936 39.5398936,35.3138086 39.7021082,35.0104937 C39.9221568,34.5990386 40,34.1959334 40,32.8722296 L40.0006955,19.9449943 C41.4697907,19.7824788 42.8322957,19.2663607 44.00121,18.4836409 L44,32.8722296 C44,34.2679715 43.8960227,35.1914999 43.6213596,36.0011542 L45,36 C46.6568542,36 48,37.3431458 48,39 C48,40.6568542 46.6568542,42 45,42 L3,42 C1.34314575,42 2.02906125e-16,40.6568542 0,39 C-2.02906125e-16,37.3431458 1.34314575,36 3,36 L4.37864044,36.0011542 C4.10397731,35.1914999 4,34.2679715 4,32.8722296 L4,13.1277704 C4,11.2002077 4.19831036,10.1732724 4.77063901,9.10311087 C5.3056528,8.10272208 6.10272208,7.3056528 7.10311087,6.77063901 C8.17327241,6.19831036 9.20020773,6 11.1277704,6 Z M24,14 C26.209139,14 28,15.790861 28,18 C28,20.209139 26.209139,22 24,22 C21.790861,22 20,20.209139 20,18 C20,15.790861 21.790861,14 24,14 Z"/>
    <path d="M39,4 C42.8659932,4 46,7.13400675 46,11 C46,14.8659932 42.8659932,18 39,18 L30,18 L30,12 C30,7.581722 33.581722,4 38,4 L39,4 Z M41,12 L35,12 C34.4477153,12 34,12.4477153 34,13 C34,13.5522847 34.4477153,14 35,14 L35,14 L41,14 C41.5522847,14 42,13.5522847 42,13 C42,12.4477153 41.5522847,12 41,12 L41,12 Z M41,8 L35,8 C34.4477153,8 34,8.44771525 34,9 C34,9.55228475 34.4477153,10 35,10 L35,10 L41,10 C41.5522847,10 42,9.55228475 42,9 C42,8.44771525 41.5522847,8 41,8 L41,8 Z"/>
  </g>
</svg>
